{"title":"Tango Charlie (2005) WebHDRip 720p x264 AAC [ TaRa ].mkv","uid":15548345,"size":1271842280,"categoryP":"video","categoryS":"hd___movies","magnet":"?xt=urn:btih:5effce5814735bf2894a6f2436bd72fbe420b6c6&amp;dn=Tango+Charlie+%282005%29+WebHDRip+720p+x264+AAC+%5B+TaRa+%5D.mkv&amp;tr=udp%3A%2F%2Ftracker.leechers-paradise.org%3A6969&amp;tr=udp%3A%2F%2Fzer0day.ch%3A1337&amp;tr=udp%3A%2F%2Fopen.demonii.com%3A1337&amp;tr=udp%3A%2F%2Ftracker.coppersurfer.tk%3A6969&amp;tr=udp%3A%2F%2Fexodus.desync.com%3A6969","seeders":0,"leechers":1,"uploader":"MdTaRa","files":1,"time":1470997833,"description":"=======================================================================\r\nGeneral\r\nTango Charlie (2005) WebHDRip 720p x264 AAC [ TaRa ].mkv\r\nFormat                      : Matroska\r\nFormat version              : Version 4 / Version 2\r\nFile size                   : 1.18 GiB\r\nDuration                    : 2 h 21 min\r\nOverall bit rate mode       : Variable\r\nOverall bit rate            : 1 200 kb/s\r\n=======================================================================\r\nVideo\r\nID                          : 1\r\nFormat                      : AVC\r\nFormat/Info                 : Advanced Video Codec\r\nFormat profile              :   \r\nFormat settings, CABAC      : Yes\r\nFormat settings, ReFrames   : 3 frames\r\nCodec ID                    : V_MPEG4/ISO/AVC\r\nDuration                    : 2 h 21 min\r\nBit rate mode               : Variable\r\nBit rate                    : 1 102 kb/s\r\nMaximum bit rate            : 40.0 Mb/s\r\nWidth                       : 1 280 pixels\r\nHeight                      : 544 pixels\r\nDisplay aspect ratio        : 2.35:1\r\nFrame rate mode             : Constant\r\nFrame rate                  : 25.000 FPS\r\nColor space                 : YUV\r\nChroma subsampling          : 4:2:0\r\nBit depth                   : 8 bits\r\nScan type                   : Progressive\r\nBits/(Pixel*Frame)          : 0.063\r\nStream size                 : 1.09 GiB (92%)\r\nTitle                       : .....::::: TaRa :::::.....\r\nLanguage                    : Hindi\r\nDefault                     : Yes\r\nForced                      : No\r\n====================================================================\r\nAudio\r\nID                          : 2\r\nFormat                      : AAC\r\nFormat/Info                 : Advanced Audio Codec\r\nFormat profile              : LC\r\nCodec ID                    : A_AAC\r\nDuration                    : 2 h 21 min\r\nBit rate                    : 96.0 kb/s\r\nChannel(s)                  : 2 channels\r\nChannel positions           : Front: L R\r\nSampling rate               : 48.0 kHz\r\nFrame rate                  : 46.875 FPS (1024 spf)\r\nCompression mode            : Lossy\r\nDelay relative to video     : 9 ms\r\nStream size                 : 96.5 MiB (8%)\r\nTitle                       : .....::::: TaRa :::::.....\r\nLanguage                    : Hindi\r\nDefault                     : Yes\r\nForced                      : No\r\n========================================================================== \nhttp://imgur.com/vE4YoiN \nhttp://imgur.com/MH6eMz1","torrent":{"xt":"urn:btih:5effce5814735bf2894a6f2436bd72fbe420b6c6","amp;dn":"Tango+Charlie+%282005%29+WebHDRip+720p+x264+AAC+%5B+TaRa+%5D.mkv","amp;tr":["udp%3A%2F%2Ftracker.leechers-paradise.org%3A6969","udp%3A%2F%2Fzer0day.ch%3A1337","udp%3A%2F%2Fopen.demonii.com%3A1337","udp%3A%2F%2Ftracker.coppersurfer.tk%3A6969","udp%3A%2F%2Fexodus.desync.com%3A6969"],"infoHash":"5effce5814735bf2894a6f2436bd72fbe420b6c6","infoHashBuffer":{"type":"Buffer","data":[94,255,206,88,20,115,91,242,137,74,111,36,54,189,114,251,228,32,182,198]},"announce":[],"urlList":[]}}